# xmcd
#
# Track frame offsets:
#	150
#	9360
#	22098
#	33503
#	40044
#	50625
#	65681
#	72628
#	78583
#	86401
#	96525
#	105072
#	113469
#	128409
#	148115
#
# Disc length: 2202 seconds
#
# Revision: 0
# Processed by: cddbd v1.5.1PL2 Copyright (c) Steve Scherf et al.
# Submitted via: dBpowerAMP V4.0
#
DISCID=c308980f
DTITLE=Gimme the Country - Music from the Show
DYEAR=1900
DGENRE=Country
TTITLE0=250 Meter
TTITLE1=Hop n Turnaround
TTITLE2=Don't Go Bleeding on my Floor
TTITLE3=Jiihard
TTITLE4=Katerpillarn
TTITLE5=Kaktus
TTITLE6=Brown Johnny
TTITLE7=Rakkaus
TTITLE8=Psalm 633
TTITLE9=Det Kommer En Dag
TTITLE10=Kallbäck Bar
TTITLE11=Leverlådan
TTITLE12=Don't Call Him Jesus
TTITLE13=Om Du Bara Tror (På Dig Själv)
TTITLE14=Katerpillar Blues
EXTD=
EXTT0=
EXTT1=
EXTT2=
EXTT3=
EXTT4=
EXTT5=
EXTT6=
EXTT7=
EXTT8=
EXTT9=
EXTT10=
EXTT11=
EXTT12=
EXTT13=
EXTT14=
PLAYORDER=
